<svg width="22" height="22" viewBox="0 0 22 22" fill="none" xmlns="http://www.w3.org/2000/svg">
<g id="bi:search" clip-path="url(#clip0_85_410)">
<path id="Vector" d="M15.6252 13.8433C16.9262 12.1315 17.5328 9.99165 17.3238 7.8518C17.1148 5.71194 16.1055 3.72991 14.4979 2.30223C12.8903 0.874559 10.8029 0.106533 8.65332 0.151808C6.50375 0.197083 4.45055 1.05232 2.90447 2.54642C1.35839 4.04052 0.433468 6.06329 0.314737 8.21005C0.196007 10.3568 0.892228 12.4692 2.26411 14.1247C3.636 15.7802 5.58237 16.8566 7.71383 17.1387C9.84529 17.4207 12.0047 16.8876 13.7599 15.6459L13.7586 15.6459C13.797 15.6991 13.8382 15.7497 13.8846 15.799L18.8487 20.9396C19.0905 21.1901 19.4219 21.3344 19.77 21.3406C20.1181 21.3468 20.4544 21.2144 20.705 20.9726C20.9555 20.7309 21.0997 20.3995 21.1059 20.0514C21.1121 19.7033 20.9798 19.3669 20.738 19.1164L15.7739 13.9759C15.7278 13.9275 15.6781 13.8828 15.6252 13.842L15.6252 13.8433ZM16.0518 8.80473C16.0353 9.75257 15.8322 10.6879 15.4542 11.5572C15.0762 12.4266 14.5307 13.213 13.8487 13.8715C13.1668 14.53 12.3619 15.0478 11.4799 15.3952C10.5978 15.7426 9.65604 15.9129 8.7082 15.8964C7.76037 15.8799 6.82507 15.6768 5.95572 15.2988C5.08636 14.9208 4.29997 14.3752 3.64145 13.6933C2.98293 13.0114 2.46517 12.2064 2.11773 11.3244C1.7703 10.4424 1.59999 9.5006 1.61653 8.55277C1.64995 6.63853 2.44242 4.81596 3.81962 3.48602C5.19682 2.15607 7.04593 1.42769 8.96017 1.4611C10.8744 1.49451 12.697 2.28699 14.0269 3.66419C15.3569 5.04138 16.0852 6.89049 16.0518 8.80473Z" fill="white"/>
</g>
<defs>
<clipPath id="clip0_85_410">
<rect width="21" height="21" fill="white" transform="translate(0.453735) rotate(1)"/>
</clipPath>
</defs>
</svg>
