<svg width="21" height="21" viewBox="0 0 21 21" fill="none" xmlns="http://www.w3.org/2000/svg">
<g id="Generic avatar">
<rect width="21" height="21" rx="10.5" fill="#43C4B4" fill-opacity="0.3"/>
<g id="Avatar Placeholder">
<path fill-rule="evenodd" clip-rule="evenodd" d="M13.6499 8.4C13.6499 10.1397 12.2396 11.55 10.4999 11.55C8.76019 11.55 7.34988 10.1397 7.34988 8.4C7.34988 6.6603 8.76019 5.25 10.4999 5.25C12.2396 5.25 13.6499 6.6603 13.6499 8.4ZM12.5999 8.4C12.5999 9.5598 11.6597 10.5 10.4999 10.5C9.34009 10.5 8.39988 9.5598 8.39988 8.4C8.39988 7.2402 9.34009 6.3 10.4999 6.3C11.6597 6.3 12.5999 7.2402 12.5999 8.4Z" fill="#08795F"/>
<path d="M10.4999 13.125C7.10083 13.125 4.20475 15.1349 3.10156 17.9508C3.37031 18.2177 3.65341 18.4701 3.94961 18.7068C4.7711 16.1215 7.34816 14.175 10.4999 14.175C13.6516 14.175 16.2287 16.1215 17.0502 18.7068C17.3464 18.4701 17.6295 18.2177 17.8982 17.9508C16.795 15.1349 13.8989 13.125 10.4999 13.125Z" fill="#08795F"/>
</g>
</g>
</svg>
