<svg width="16" height="16" viewBox="0 0 16 16" fill="none" xmlns="http://www.w3.org/2000/svg">
<g id="Group">
<path id="Vector" d="M10.1017 1.58484C11.1354 1.86287 12.0779 2.40763 12.8348 3.16457C13.5917 3.92152 14.1364 4.86406 14.4145 5.8978" stroke="#1A1A1A" stroke-width="1.5" stroke-linecap="round" stroke-linejoin="round"/>
<path id="Vector_2" d="M9.47083 3.94177C10.0909 4.1086 10.6563 4.43541 11.1103 4.88948C11.5644 5.34356 11.8912 5.90895 12.058 6.52906" stroke="#1A1A1A" stroke-width="1.5" stroke-linecap="round" stroke-linejoin="round"/>
<path id="Vector_3" d="M4.99997 8.04975C5.63228 9.34295 6.68031 10.3865 7.97617 11.0133C8.07105 11.0582 8.17602 11.0776 8.28071 11.0696C8.3854 11.0616 8.48618 11.0264 8.57311 10.9675L10.4816 9.69554C10.5659 9.63925 10.6629 9.60487 10.7639 9.5955C10.8648 9.58613 10.9665 9.60207 11.0597 9.64188L14.6298 11.1724C14.751 11.2239 14.8523 11.3135 14.9183 11.4275C14.9843 11.5416 15.0114 11.674 14.9956 11.8048C14.8826 12.6877 14.4517 13.4992 13.7836 14.0873C13.1154 14.6755 12.2559 14.9999 11.3658 15C8.6166 15 5.98003 13.9078 4.03607 11.9638C2.09211 10.0198 1 7.38307 1 4.63377C1.00008 3.7437 1.32456 2.88417 1.91268 2.21611C2.5008 1.54804 3.31225 1.11725 4.1951 1.00437C4.3259 0.988598 4.45829 1.01575 4.57234 1.08173C4.68638 1.14772 4.77589 1.24897 4.82741 1.37024L6.35911 4.94354C6.3985 5.03587 6.41449 5.13649 6.40566 5.23648C6.39683 5.33647 6.36346 5.43274 6.3085 5.51673L5.04021 7.45461C4.98265 7.54187 4.94869 7.64257 4.94163 7.74687C4.93458 7.85118 4.95468 7.95553 4.99997 8.04975V8.04975Z" stroke="#1A1A1A" stroke-width="1.5" stroke-linecap="round" stroke-linejoin="round"/>
</g>
</svg>
