<svg width="72" height="16" viewBox="0 0 72 16" fill="none" xmlns="http://www.w3.org/2000/svg">
<g id="Group 10">
<path id="Vector" d="M16.002 7.91123C16.002 3.68345 12.42 0.256348 8.002 0.256348C3.582 0.257299 0 3.68345 0 7.91218C0 11.732 2.926 14.8986 6.75 15.4729V10.124H4.72V7.91218H6.752V6.2243C6.752 4.3063 7.947 3.24698 9.774 3.24698C10.65 3.24698 11.565 3.39628 11.565 3.39628V5.27909H10.556C9.563 5.27909 9.253 5.86961 9.253 6.47535V7.91123H11.471L11.117 10.1231H9.252V15.472C13.076 14.8976 16.002 11.7311 16.002 7.91123Z" fill="black"/>
<g id="Group 8">
<path id="Vector_2" d="M43.9485 4.75451C43.9395 4.11462 43.8135 3.48108 43.5762 2.88225C43.3704 2.37714 43.056 1.9184 42.6532 1.53536C42.2504 1.15232 41.768 0.853386 41.2368 0.657668C40.6151 0.435765 39.9584 0.315778 39.2945 0.302816C38.4398 0.266486 38.1688 0.256348 35.9991 0.256348C33.8294 0.256348 33.5513 0.256348 32.7028 0.302816C32.0392 0.315873 31.3828 0.435859 30.7614 0.657668C30.2302 0.853249 29.7477 1.15213 29.3449 1.53519C28.942 1.91825 28.6277 2.37706 28.422 2.88225C28.1882 3.47293 28.0623 4.09729 28.0498 4.72832C28.0116 5.54194 28 5.79963 28 7.86284C28 9.92605 28 10.1897 28.0498 10.9974C28.0631 11.6293 28.1884 12.2529 28.422 12.8451C28.6281 13.3502 28.9426 13.8088 29.3456 14.1917C29.7485 14.5746 30.2311 14.8733 30.7623 15.0689C31.382 15.2997 32.0385 15.4283 32.7037 15.4491C33.5593 15.4854 33.8303 15.4964 36 15.4964C38.1697 15.4964 38.4478 15.4964 39.2963 15.4491C39.9602 15.4366 40.6169 15.3169 41.2386 15.0951C41.7696 14.8991 42.2519 14.6001 42.6547 14.2171C43.0575 13.8341 43.3719 13.3755 43.578 12.8705C43.8116 12.2791 43.9369 11.6555 43.9502 11.0227C43.9884 10.2099 44 9.95224 44 7.88819C43.9982 5.82498 43.9982 5.56307 43.9485 4.75451ZM35.9938 11.7645C33.7246 11.7645 31.8863 10.0165 31.8863 7.85862C31.8863 5.70078 33.7246 3.95272 35.9938 3.95272C37.0832 3.95272 38.1279 4.36423 38.8982 5.09673C39.6685 5.82923 40.1013 6.82271 40.1013 7.85862C40.1013 8.89453 39.6685 9.88801 38.8982 10.6205C38.1279 11.353 37.0832 11.7645 35.9938 11.7645ZM40.2648 4.71903C40.139 4.71914 40.0144 4.69566 39.8981 4.64992C39.7818 4.60419 39.6762 4.53711 39.5872 4.45251C39.4983 4.36792 39.4277 4.26747 39.3796 4.15692C39.3316 4.04636 39.3069 3.92788 39.307 3.80824C39.307 3.68869 39.3317 3.57031 39.3798 3.45986C39.428 3.34941 39.4985 3.24905 39.5874 3.16452C39.6763 3.07998 39.7818 3.01293 39.898 2.96718C40.0141 2.92143 40.1386 2.89788 40.2643 2.89788C40.39 2.89788 40.5145 2.92143 40.6307 2.96718C40.7468 3.01293 40.8524 3.07998 40.9413 3.16452C41.0302 3.24905 41.1007 3.34941 41.1488 3.45986C41.1969 3.57031 41.2217 3.68869 41.2217 3.80824C41.2217 4.31179 40.7934 4.71903 40.2648 4.71903Z" fill="black"/>
<path id="Vector_3" d="M35.9938 10.3959C37.4673 10.3959 38.6619 9.25997 38.6619 7.85872C38.6619 6.45747 37.4673 5.32153 35.9938 5.32153C34.5202 5.32153 33.3256 6.45747 33.3256 7.85872C33.3256 9.25997 34.5202 10.3959 35.9938 10.3959Z" fill="black"/>
</g>
<path id="Vector_4" d="M61.0327 14.5214C62.2612 14.5287 63.479 14.3041 64.6154 13.8604C65.7519 13.4168 66.7844 12.763 67.653 11.9369C68.5217 11.1109 69.2093 10.1291 69.6758 9.0484C70.1424 7.96773 70.3786 6.80973 70.3709 5.64156V5.23353C71.0077 4.78987 71.5589 4.24469 72 3.62216C71.4004 3.87153 70.7659 4.03693 70.1164 4.11317C70.805 3.72297 71.3217 3.10878 71.5709 2.38423C70.9291 2.75038 70.2253 3.00778 69.4909 3.14497C68.9963 2.64383 68.3418 2.31166 67.6287 2.19985C66.9156 2.08804 66.1836 2.20283 65.546 2.52646C64.9084 2.85009 64.4007 3.36451 64.1015 3.99013C63.8023 4.61575 63.7283 5.31769 63.8909 5.98735C62.5862 5.92645 61.3096 5.60492 60.1443 5.04369C58.9789 4.48247 57.9509 3.69413 57.1273 2.73002C56.7119 3.41549 56.5861 4.22543 56.7751 4.99585C56.9641 5.76626 57.454 6.43958 58.1455 6.87948C57.6354 6.86077 57.1371 6.7281 56.6909 6.4922V6.52678C56.6864 7.24313 56.9402 7.93933 57.41 8.49934C57.8798 9.05934 58.5372 9.44933 59.2727 9.60429C58.7983 9.72563 58.3013 9.74454 57.8182 9.65962C58.0311 10.2705 58.4376 10.8039 58.9819 11.1865C59.5261 11.5691 60.1815 11.7822 60.8582 11.7966C59.7012 12.6822 58.2633 13.1696 56.7782 13.1797C56.5178 13.1726 56.258 13.1518 56 13.1175C57.5032 14.0282 59.2503 14.5084 61.0327 14.5007" fill="black"/>
</g>
</svg>
