<svg width="16" height="16" viewBox="0 0 16 16" fill="none" xmlns="http://www.w3.org/2000/svg">
<g id="Shopping Cart">
<g id="Vector">
<path fill-rule="evenodd" clip-rule="evenodd" d="M0 0.887944C0 0.397543 0.397546 0 0.887944 0H2.62583C2.98891 0 3.31542 0.221055 3.45027 0.558169L3.86632 1.5983H15.289C15.7915 1.5983 16.1352 2.10587 15.9485 2.57247L13.854 7.8088C13.6383 8.34817 13.1158 8.70185 12.5349 8.70185H6.06814L5.16674 10.1226H13.3192C13.8096 10.1226 14.2071 10.5201 14.2071 11.0105C14.2071 11.5009 13.8096 11.8985 13.3192 11.8985H3.55178C3.22791 11.8985 2.92973 11.7221 2.77369 11.4384C2.61765 11.1545 2.6285 10.8083 2.80201 10.5348L4.47399 7.89958L2.02451 1.77589H0.887944C0.397546 1.77589 0 1.37835 0 0.887944ZM5.99738 6.92597H12.2944L13.7151 3.37419H4.57667L5.99738 6.92597Z" fill="#08795F"/>
<path d="M5.68284 14.2071C5.68284 14.9918 5.04677 15.6278 4.26213 15.6278C3.4775 15.6278 2.84142 14.9918 2.84142 14.2071C2.84142 13.4225 3.4775 12.7864 4.26213 12.7864C5.04677 12.7864 5.68284 13.4225 5.68284 14.2071Z" fill="#08795F"/>
<path d="M12.7864 15.6278C13.5711 15.6278 14.2071 14.9918 14.2071 14.2071C14.2071 13.4225 13.5711 12.7864 12.7864 12.7864C12.0017 12.7864 11.3657 13.4225 11.3657 14.2071C11.3657 14.9918 12.0017 15.6278 12.7864 15.6278Z" fill="#08795F"/>
</g>
</g>
</svg>
